<mxfile host="app.diagrams.net" modified="2024-02-26T03:33:03.883Z" agent="Mozilla/5.0 (Macintosh; Intel Mac OS X 10_15_7) AppleWebKit/537.36 (KHTML, like Gecko) Chrome/121.0.0.0 Safari/537.36" etag="A9E5tqX5ZFsijHDVV7NB" version="23.1.6" type="device">
  <diagram name="Page-1" id="rsti3gNJeHu-s0ZUMhum">
    <mxGraphModel dx="1008" dy="996" grid="1" gridSize="10" guides="1" tooltips="1" connect="1" arrows="1" fold="1" page="1" pageScale="1" pageWidth="827" pageHeight="1169" math="0" shadow="0">
      <root>
        <mxCell id="0" />
        <mxCell id="1" parent="0" />
        <mxCell id="ri466VOFKsAlvEhfHtp6-11" style="edgeStyle=orthogonalEdgeStyle;rounded=0;orthogonalLoop=1;jettySize=auto;html=1;" edge="1" parent="1">
          <mxGeometry relative="1" as="geometry">
            <mxPoint x="110" y="340" as="sourcePoint" />
            <mxPoint x="465" y="320" as="targetPoint" />
            <Array as="points">
              <mxPoint x="110" y="260" />
              <mxPoint x="465" y="260" />
            </Array>
          </mxGeometry>
        </mxCell>
        <mxCell id="ri466VOFKsAlvEhfHtp6-1" value="&lt;font style=&quot;font-size: 16px;&quot;&gt;提问&lt;/font&gt;" style="shape=callout;whiteSpace=wrap;html=1;perimeter=calloutPerimeter;size=30;position=0.2;position2=0;" vertex="1" parent="1">
          <mxGeometry x="60" y="350" width="100" height="70" as="geometry" />
        </mxCell>
        <mxCell id="ri466VOFKsAlvEhfHtp6-2" value="&lt;font style=&quot;font-size: 16px;&quot;&gt;外部数据源&lt;br&gt;&lt;br&gt;&lt;/font&gt;（如文档，网页，数据库等）" style="rounded=1;whiteSpace=wrap;html=1;" vertex="1" parent="1">
          <mxGeometry x="210" y="310" width="160" height="130" as="geometry" />
        </mxCell>
        <mxCell id="ri466VOFKsAlvEhfHtp6-3" value="&lt;font style=&quot;font-size: 16px;&quot;&gt;提示词&lt;/font&gt;" style="ellipse;whiteSpace=wrap;html=1;aspect=fixed;" vertex="1" parent="1">
          <mxGeometry x="420" y="330" width="90" height="90" as="geometry" />
        </mxCell>
        <mxCell id="ri466VOFKsAlvEhfHtp6-4" value="&lt;font style=&quot;font-size: 16px;&quot;&gt;大规模语言模型&lt;/font&gt;" style="ellipse;whiteSpace=wrap;html=1;aspect=fixed;" vertex="1" parent="1">
          <mxGeometry x="560" y="330" width="90" height="90" as="geometry" />
        </mxCell>
        <mxCell id="ri466VOFKsAlvEhfHtp6-5" value="&lt;font style=&quot;font-size: 16px;&quot;&gt;回答&lt;/font&gt;" style="shape=callout;whiteSpace=wrap;html=1;perimeter=calloutPerimeter;direction=east;flipH=1;size=30;position=0.2;position2=0;" vertex="1" parent="1">
          <mxGeometry x="700" y="350" width="100" height="70" as="geometry" />
        </mxCell>
        <mxCell id="ri466VOFKsAlvEhfHtp6-7" value="" style="endArrow=classic;html=1;rounded=0;" edge="1" parent="1">
          <mxGeometry width="50" height="50" relative="1" as="geometry">
            <mxPoint x="170" y="374.5" as="sourcePoint" />
            <mxPoint x="200" y="374.5" as="targetPoint" />
          </mxGeometry>
        </mxCell>
        <mxCell id="ri466VOFKsAlvEhfHtp6-8" value="" style="endArrow=classic;html=1;rounded=0;" edge="1" parent="1">
          <mxGeometry width="50" height="50" relative="1" as="geometry">
            <mxPoint x="380" y="374.77" as="sourcePoint" />
            <mxPoint x="410" y="374.77" as="targetPoint" />
          </mxGeometry>
        </mxCell>
        <mxCell id="ri466VOFKsAlvEhfHtp6-9" value="" style="endArrow=classic;html=1;rounded=0;" edge="1" parent="1">
          <mxGeometry width="50" height="50" relative="1" as="geometry">
            <mxPoint x="520" y="374.62" as="sourcePoint" />
            <mxPoint x="550" y="374.62" as="targetPoint" />
          </mxGeometry>
        </mxCell>
        <mxCell id="ri466VOFKsAlvEhfHtp6-10" value="" style="endArrow=classic;html=1;rounded=0;" edge="1" parent="1">
          <mxGeometry width="50" height="50" relative="1" as="geometry">
            <mxPoint x="660" y="374.62" as="sourcePoint" />
            <mxPoint x="690" y="374.62" as="targetPoint" />
          </mxGeometry>
        </mxCell>
      </root>
    </mxGraphModel>
  </diagram>
</mxfile>
